<svg width="1024" height="1024" viewBox="0 0 1024 1024" fill="none" xmlns="http://www.w3.org/2000/svg">
<rect width="1024" height="1024" fill="url(#paint0_linear_1001_9)"/>
<path d="M514.103 177.196C545.256 177.465 568.352 220.165 568.352 271.459L568.352 379.687C568.352 394.726 570.769 400.365 580.705 409.228L777.824 589.696C784.001 595.336 787.492 602.318 787.492 610.375L787.492 641.527C787.492 648.51 781.047 652.538 773.796 649.047L568.352 556.127L552.775 692.553L641.936 741.161C648.381 744.652 651.335 750.561 651.335 759.423L651.335 770.971C651.335 777.953 647.038 782.519 640.056 782.519L388.151 782.519C381.169 782.519 376.604 777.953 376.604 770.971L376.604 759.423C376.604 750.561 379.558 744.652 386.271 741.161L475.432 692.553L459.855 556.127L254.411 649.047C246.892 652.538 240.715 648.51 240.715 641.527L240.715 610.375C240.715 602.318 243.937 595.336 250.383 589.696L447.233 409.228C457.438 400.365 459.855 394.726 459.855 379.687L459.855 271.459C459.855 220.165 482.683 177.465 514.103 177.196Z" fill="white"/>
<defs>
<linearGradient id="paint0_linear_1001_9" x1="512" y1="0" x2="512" y2="1024" gradientUnits="userSpaceOnUse">
<stop stop-color="#0059F0"/>
<stop offset="1" stop-color="#58A2FB"/>
</linearGradient>
</defs>
</svg>
